<svg xmlns="http://www.w3.org/2000/svg" viewBox="0 0 440 120" width="440" height="120">
  <!-- Variante 3: Enge Familie – zwei hohe Elternblätter und zwei kürzere Kinderblätter, nah beieinander -->
  <!-- Elternblatt links (hoch) -->
  <path d="M 40 90 C 18 72, 16 40, 40 24 C 44 22, 46 26, 44 36 C 42 54, 40 72, 40 90 Z"
        fill="#1A6B6E" opacity="0.75"/>
  <!-- Kindblatt links (kürzer) -->
  <path d="M 46 90 C 32 78, 30 58, 46 46 C 49 44, 50 47, 49 52 C 48 64, 46 78, 46 90 Z"
        fill="#1A6B6E" opacity="0.5"/>
  <!-- Kindblatt rechts (kürzer) -->
  <path d="M 54 90 C 68 78, 70 58, 54 46 C 51 44, 50 47, 51 52 C 52 64, 54 78, 54 90 Z"
        fill="#1A6B6E" opacity="0.4"/>
  <!-- Elternblatt rechts (hoch) -->
  <path d="M 60 90 C 82 72, 84 40, 60 24 C 56 22, 54 26, 56 36 C 58 54, 60 72, 60 90 Z"
        fill="#1A6B6E" opacity="0.65"/>
  <text x="105" y="52" font-family="'Segoe UI', 'Helvetica Neue', sans-serif" font-size="32" font-weight="300" fill="#1A6B6E" letter-spacing="0.5">Eva Bernhardt</text>
  <line x1="105" y1="62" x2="360" y2="62" stroke="#1A6B6E" stroke-width="0.5" opacity="0.25"/>
  <text x="105" y="80" font-family="'Segoe UI', 'Helvetica Neue', sans-serif" font-size="11" font-weight="300" fill="#6B9B9D" letter-spacing="1.8">Familiencoaching für gelingende Beziehungen</text>
</svg>
